<?xml version="1.0" encoding="UTF-8"?>
<svg xmlns="http://www.w3.org/2000/svg" width="24" height="24" version="1.1" viewBox="0 0 24 24">
  <g fill="#898989">
    <path d="M20.7,10.7c-.3,0-.5,0-.7-.3-2-2-4.6-3.1-7.4-3.1s-5.4,1.1-7.4,3.1c-.4.4-1,.4-1.4,0s-.4-1,0-1.4c2.4-2.4,5.5-3.7,8.8-3.7s6.5,1.3,8.8,3.7c.4.4.4,1,0,1.4s-.5.3-.7.3Z"/>
    <path d="M10.7,9.6c-1.6.3-3,1.1-4.1,2.3s-.4,1,0,1.4,1,.4,1.4,0c.8-.8,1.7-1.3,2.8-1.6v-2Z"/>
    <path d="M18.5,11.9c-1.1-1.1-2.6-1.9-4.1-2.3v2c1,.3,1.9.8,2.7,1.6.2.2.5.3.7.3s.5,0,.7-.3c.4-.4.4-1,0-1.4Z"/>
    <path d="M15.8,14.6c-.4-.4-.9-.8-1.5-1v1.7c0,.2-.1.3-.2.4.1,0,.2.2.3.2.4.4,1,.4,1.4,0s.4-1,0-1.4Z"/>
    <path d="M10.9,15.3v-1.7c-.6.2-1.1.6-1.6,1-.4.4-.4,1,0,1.4.2.2.5.3.7.3s.5,0,.7-.3c.1-.1.2-.2.3-.3,0-.1-.2-.3-.2-.4Z"/>
  </g>
  <g fill="#d6378a">
    <circle cx="12.6" cy="17.8" r="1.2"/>
    <path d="M13.1,15.4h-1.1c-.2,0-.4-.2-.4-.4l-.2-6.8c0-.2.2-.4.4-.4h1.6c.2,0,.4.2.4.4l-.2,6.8c0,.2-.2.4-.4.4Z"/>
  </g>
</svg>
