<?xml version="1.0" encoding="UTF-8"?>
<svg xmlns="http://www.w3.org/2000/svg" width="24" height="24" version="1.1" viewBox="0 0 24 24">
    <path d="M1.1,14.1c.7.1,1.3.3,1.9.3.7,0,1.4,0,2.1-.4,4.5-2,8.9-4.1,13.3-6.2.9-.4,1.3-1.2,1.7-2,.1-.2.2-.5.3-.7.3-.5.9-.7,1.4-.5.5.2.8.7.6,1.3,0,.2-.1.4-.1.7,0,.6.3,1,.9,1.3.6.3.9.8.7,1.4-.2.6-.7.8-1.4.7-.4,0-.7-.2-1.1-.2-.8-.1-1.6-.1-2.4.3-4.3,2-8.6,4-12.9,6-1,.5-1.8,1.2-2.3,2.2-.1.3-.3.6-.4.8-.3.5-.8.6-1.3.4-.5-.2-.8-.7-.7-1.2.3-1.1,0-1.7-1-2.1-.5-.2-.6-.8-.5-1.3.1-.5.5-.7,1-.7Z" fill="#fff"/>
    <path d="M10.7,10.2c-.9.4-1.6.8-2.3,1.1-.2,0-.5,0-.8-.1-.8-.4-1.7-.8-2.5-1.2-.9-.5-1.9-.6-2.9-.3-.2,0-.4.1-.6.2-.8.2-1.3,0-1.5-.6-.2-.6,0-1.2.7-1.5.8-.4.9-.8.8-1.6s0-1.3.6-1.5,1.2.1,1.5.8c.6,1.3,1.4,2.3,2.8,2.8,1.4.5,2.7,1.2,4.2,1.9Z" fill="#fff"/>
    <path d="M13.4,13.7c.7-.3,1.4-.7,2.2-1,.2,0,.5,0,.7,0,.8.3,1.6.7,2.4,1.1,1,.6,2.1.6,3.2.3.2,0,.4-.1.6-.1.7-.1,1.2,0,1.4.6.2.6,0,1.2-.6,1.5,0,0,0,0,0,0-.8.4-1,.8-.8,1.7.2.7,0,1.3-.6,1.5-.6.2-1.2,0-1.5-.8-.6-1.4-1.6-2.4-3.1-3-1.3-.5-2.5-1.2-3.8-1.7,0,0,0-.1,0-.2Z" fill="#fff"/>
</svg>