<?xml version="1.0" encoding="UTF-8"?>
<svg xmlns="http://www.w3.org/2000/svg" width="24" height="24" version="1.1" viewBox="0 0 24 24">
<line fill="none" stroke="#446ADF" stroke-linecap="round" stroke-linejoin="round" stroke-miterlimit="10" x1="11.2" y1="0.5" x2="13.9" y2="2.3"/>
<path fill="none" stroke="#000000" stroke-linecap="round" stroke-linejoin="round" stroke-miterlimit="10" d="M6.4,12.8
	c-0.8,3-0.4,5.7,1.3,6.6c0.4,0.2,0.9,0.4,1.4,0.4"/>
<path fill="none" stroke="#000000" stroke-linecap="round" stroke-linejoin="round" stroke-miterlimit="10" d="M16.5,4.2
	c-2.1-1.2-5.5,0.6-8,4.2"/>
<path fill="none" stroke="#000000" stroke-linecap="round" stroke-linejoin="round" stroke-miterlimit="10" d="M9.6,13
	c-1.5,3.6-1.3,7.1,0.7,8.2l2.7,1.8"/>
<path fill="none" stroke="#000000" stroke-linecap="round" stroke-linejoin="round" stroke-miterlimit="10" d="M21.8,7.8
	c2.3,1.3,2.2,5.9-0.2,10.1s-6.3,6.6-8.6,5.2s-2.2-5.9,0.2-10.1S19.5,6.5,21.8,7.8L19.2,6c-2.3-1.3-6.2,1-8.6,5.2"/>
<path fill="none" stroke="#000000" stroke-linecap="round" stroke-linejoin="round" stroke-miterlimit="10" d="M6,6.3
	c2.4-3.4,5.8-5.2,7.9-4l2.7,1.8c0.5,0.3,0.9,0.8,1.2,1.3"/>
<path fill="none" stroke="#000000" stroke-linecap="round" stroke-linejoin="round" stroke-miterlimit="10" d="M7.7,19.5L5,17.6
	c-1.7-1-2.1-3.7-1.2-6.8"/>
<line fill="none" stroke="#446ADF" stroke-linecap="round" stroke-linejoin="round" stroke-miterlimit="10" x1="3.8" y1="5.1" x2="11.2" y2="0.5"/>
<polyline fill="none" stroke="#446ADF" stroke-linecap="round" stroke-linejoin="round" stroke-miterlimit="10" points="4.1,11 
	1.1,8.9 3.8,5.1 9.3,8.9 10.7,12.7 6.6,12.7 4.1,11 "/>
</svg>