<?xml version="1.0" encoding="utf-8"?>
<svg version="1.1" xmlns="http://www.w3.org/2000/svg" width="48px" height="48px" viewBox="0 0 48 48" enable-background="new 0 0 48 48">
  <g>
    <path fill="#95B5BA" d="M21.1,33.7c-0.1,0-0.2,0-0.3-0.1l-6.4-2.1c-0.6-0.2-0.9-0.8-0.7-1.4c0.2-0.6,0.8-0.9,1.4-0.7l6.4,2.1
      c0.6,0.2,0.9,0.8,0.7,1.4C22,33.4,21.5,33.7,21.1,33.7z"/>
    <path fill="#95B5BA" d="M25.2,25.6c-0.2,0-0.4-0.1-0.6-0.2l-5.5-4c-0.5-0.3-0.6-1-0.2-1.5c0.3-0.5,1-0.6,1.5-0.2l5.5,4
      c0.5,0.3,0.6,1,0.2,1.5C25.9,25.4,25.5,25.6,25.2,25.6z"/>
    <path fill="#95B5BA" d="M31.6,19.2c-0.3,0-0.7-0.2-0.9-0.4l-4-5.5c-0.3-0.5-0.2-1.2,0.2-1.5c0.5-0.3,1.2-0.2,1.5,0.2l4,5.5
      c0.3,0.5,0.2,1.2-0.2,1.5C32,19.1,31.8,19.2,31.6,19.2z"/>
    <path fill="#95B5BA" d="M39.7,15.1c-0.5,0-0.9-0.3-1-0.7l-2.1-6.4c-0.2-0.6,0.1-1.2,0.7-1.4c0.6-0.2,1.2,0.1,1.4,0.7l2.1,6.4
      c0.2,0.6-0.1,1.2-0.7,1.4C39.9,15,39.8,15.1,39.7,15.1z"/>
    <polygon fill="#374B52" points="30.3,40.3 0,40.3 0,41.5 30.7,41.5 35.8,41.5 48,41.5 48,36.5 34.5,36.5 	"/>
  </g>
</svg>
